<svg width="431" height="270" viewBox="0 0 431 270" fill="none" xmlns="http://www.w3.org/2000/svg">
<g clip-path="url(#clip0)">
<path d="M386.326 181.191C381.911 182.457 374.234 183.302 365.374 183.851C341.281 185.348 308.419 184.703 308.419 184.703C308.419 184.703 139.025 189.471 15.3469 135.263C15.3469 135.263 -2.53367 125.463 15.2031 114.297C17.9313 112.632 20.8128 111.193 23.8143 109.996L24.0336 109.813C26.0677 108.25 28.2491 106.857 30.5516 105.653C37.3222 102.056 48.643 97.9517 61.9842 100.706L391.167 166.408C391.167 166.408 402.755 176.467 386.326 181.191Z" fill="#FFBA08"/>
<path d="M321.453 155.493L393.542 113.274L423.896 119.654L391.167 166.408C391.167 166.408 321.796 163.565 321.453 155.493Z" fill="#FFBA08"/>
<path d="M148.047 119.332L288.524 90.1421L310.594 95.5335L246.582 118.512L225.891 137.779L148.047 119.332Z" fill="#FFBA08"/>
<path d="M365.374 183.851C341.281 185.348 308.419 184.703 308.419 184.703C308.419 184.703 139.025 189.471 15.3469 135.263C15.3469 135.263 -2.53366 125.463 15.2031 114.297L15.2482 114.521C15.2482 114.521 41.5568 132.882 171.072 153.415L365.374 183.851Z" fill="#F5F8FA"/>
<path d="M343.177 181.79L403.745 208.147L419.384 207.305L383.823 179.791C383.823 179.791 339.544 168.792 343.177 181.79Z" fill="#FFBA08"/>
<path d="M37.5496 118.103C34.5942 118.005 28.0883 113.1 24.0557 109.814C26.0899 108.251 28.2712 106.858 30.5738 105.654C33.829 108.224 39.6422 112.41 43.007 112.42C47.8635 112.471 42.0007 118.244 37.5496 118.103Z" fill="#F5F8FA"/>
<path d="M311.385 261.225L271.537 261.224L163.762 186.177L143.755 172.242L134.038 165.472C153.776 151.632 229.736 175.713 229.736 175.713C231.147 176.936 231.508 178.873 231.322 180.984C230.968 184.937 228.692 189.487 227.821 191.122C227.611 191.523 227.484 191.734 227.484 191.734L311.385 261.225Z" fill="#FFBA08"/>
<path d="M385.13 88.4472L378.007 92.1464L382.582 85.3279C381.449 84.3984 380.013 83.8445 378.501 83.7537L378.391 83.7483C377.912 83.7338 377.436 83.6777 376.968 83.5808L374.559 84.8369L375.652 83.2048C374.03 82.5888 372.66 81.5158 371.736 80.1385L367.424 82.3956L370.309 78.0886C368.024 75.2615 364.829 73.4425 361.207 73.2672C356.866 73.0571 352.865 75.2553 350.157 78.8559C349.354 79.9345 348.255 80.7971 346.974 81.3559C345.693 81.9147 344.275 82.1498 342.863 82.0372L342.633 82.0261C337.84 81.7941 333.671 86.6268 333.319 92.8236C332.968 99.0204 336.567 104.229 341.359 104.461C342.413 104.509 343.463 104.318 344.419 103.906C346.092 103.253 347.898 102.944 349.714 102.999C351.529 103.054 353.309 103.473 354.933 104.226C356.303 104.877 357.806 105.253 359.344 105.331C360.883 105.409 362.422 105.187 363.861 104.679C365.546 104.098 367.346 103.859 369.139 103.978C370.933 104.097 372.678 104.57 374.256 105.367C375.155 105.857 376.168 106.141 377.21 106.196C382.003 106.428 386.171 101.595 386.523 95.3983C386.697 93.0099 386.218 90.6195 385.13 88.4472V88.4472Z" fill="#F5F8FA"/>
<path opacity="0.03" d="M371.23 104.234C368.752 103.675 366.149 103.809 363.753 104.62C362.316 105.133 360.779 105.36 359.24 105.285C357.702 105.211 356.199 104.837 354.828 104.188C353.206 103.433 351.425 103.013 349.609 102.958C347.794 102.903 345.987 103.214 344.314 103.868C343.356 104.279 342.305 104.469 341.251 104.423C336.994 104.217 333.677 100.078 333.238 94.8128C334.122 94.2823 334.886 93.5976 335.486 92.7969C338.193 89.2005 342.195 87.0023 346.535 87.2123C350.876 87.4224 354.569 89.9436 356.852 93.7528C357.534 94.9037 358.527 95.8713 359.735 96.5615C360.943 97.2516 362.323 97.6405 363.742 97.6904L363.853 97.6958C367.218 97.8504 370.011 100.501 371.23 104.234Z" fill="black"/>
<path d="M101.305 60.1678L97.755 62.0138L100.037 58.6146C99.4734 58.1486 98.7566 57.8708 98.0016 57.8257L97.9484 57.8231C97.7092 57.8138 97.4714 57.7858 97.2374 57.7394L96.0371 58.3635L96.5802 57.5678C95.7711 57.261 95.0874 56.726 94.6264 56.039L92.4772 57.1679L93.9327 55.0232C93.4171 54.3352 92.742 53.7622 91.9566 53.346C91.1711 52.9298 90.295 52.6807 89.3922 52.6171C87.2286 52.5124 85.2325 53.6076 83.899 55.4048C83.4978 55.9442 82.9487 56.3754 82.3079 56.6542C81.6671 56.933 80.9577 57.0493 80.2523 56.9914L80.1371 56.9858C77.7473 56.8701 75.6675 59.2846 75.4921 62.3748C75.3167 65.465 77.1121 68.0629 79.5018 68.1786C80.0275 68.2024 80.5516 68.1079 81.029 67.9032C81.8636 67.5763 82.7652 67.4213 83.671 67.4488C84.5769 67.4763 85.4654 67.6857 86.2749 68.0625C86.9565 68.383 87.7034 68.5678 88.4671 68.6047C89.2308 68.6417 89.9944 68.5301 90.7086 68.2771C91.5493 67.9872 92.4476 67.8681 93.3426 67.9277C94.2375 67.9873 95.108 68.2243 95.895 68.6226C96.3431 68.8652 96.847 69.0065 97.3654 69.0349C99.7551 69.1505 101.835 66.7401 102.01 63.6499C102.095 62.4529 101.853 61.2554 101.305 60.1678Z" fill="#F5F8FA"/>
<path opacity="0.03" d="M94.3719 68.0434C93.1349 67.7617 91.835 67.8291 90.6398 68.2368C89.9251 68.4881 89.1619 68.5995 88.3983 68.5639C87.6261 68.5264 86.8715 68.3371 86.1847 68.0089C85.3745 67.6335 84.4859 67.4252 83.5801 67.3984C82.6743 67.3716 81.773 67.5269 80.9385 67.8536C80.4626 68.0584 79.94 68.153 79.4157 68.1292C77.292 68.0265 75.6353 65.9613 75.4153 63.3369C75.8552 63.0701 76.2366 62.7288 76.5394 62.331C77.8862 60.5345 79.8823 59.4393 82.0326 59.5433C84.1829 59.6474 86.0359 60.9166 87.1822 62.8091C87.5232 63.3842 88.02 63.8675 88.624 64.2115C89.228 64.5556 89.9184 64.7486 90.6275 64.7717L90.6851 64.7745C92.3566 64.8554 93.7618 66.181 94.3719 68.0434Z" fill="black"/>
<path d="M249.101 25.5616L241.978 29.2608L246.553 22.4423C245.42 21.5128 243.984 20.9589 242.472 20.8681L242.361 20.8627C241.882 20.8482 241.406 20.7921 240.939 20.6953L238.529 21.9513L239.622 20.3192C238 19.7032 236.63 18.6302 235.706 17.2529L231.394 19.5101L234.28 15.203C231.995 12.3759 228.799 10.5569 225.177 10.3816C220.837 10.1715 216.835 12.3697 214.128 15.9703C213.324 17.0489 212.226 17.9115 210.945 18.4703C209.664 19.0291 208.245 19.2642 206.834 19.1516L206.603 19.1405C201.811 18.9086 197.642 23.7412 197.29 29.938C196.938 36.1348 200.537 41.3434 205.33 41.5753C206.383 41.6232 207.433 41.4328 208.389 41.0206C210.062 40.3678 211.869 40.0583 213.684 40.1135C215.499 40.1687 217.28 40.5873 218.903 41.3403C220.273 41.9911 221.777 42.3677 223.315 42.4456C224.853 42.5236 226.392 42.3012 227.831 41.7929C229.516 41.2126 231.316 40.9737 233.11 41.0924C234.903 41.2111 236.648 41.6846 238.227 42.4809C239.125 42.9715 240.138 43.2558 241.18 43.3102C245.973 43.5421 250.142 38.7095 250.494 32.5127C250.668 30.1243 250.189 27.7339 249.101 25.5616V25.5616Z" fill="#F5F8FA"/>
<path d="M76.2191 184.709L69.0959 188.408L73.6709 181.59C72.5378 180.66 71.1019 180.106 69.5901 180.015L69.4792 180.01C69.0006 179.996 68.5245 179.94 68.0572 179.843L65.6474 181.099L66.7403 179.467C65.1186 178.851 63.7483 177.778 62.8242 176.4L58.5126 178.657L61.3979 174.35C59.1131 171.523 55.9176 169.704 52.2953 169.529C47.9547 169.319 43.9532 171.517 41.2459 175.118C40.4424 176.196 39.3442 177.059 38.063 177.618C36.7818 178.177 35.3634 178.412 33.952 178.299L33.7215 178.288C28.9287 178.056 24.7599 182.889 24.4082 189.085C24.0565 195.282 27.6554 200.491 32.4482 200.723C33.5015 200.771 34.5516 200.58 35.5073 200.168C37.1806 199.515 38.9872 199.206 40.8024 199.261C42.6176 199.316 44.3981 199.735 46.0213 200.488C47.3916 201.138 48.8948 201.515 50.4331 201.593C51.9714 201.671 53.5102 201.449 54.9494 200.94C56.6344 200.36 58.4346 200.121 60.2281 200.24C62.0216 200.359 63.7665 200.832 65.3447 201.628C66.2435 202.119 67.2564 202.403 68.2986 202.458C73.0913 202.69 77.2601 197.857 77.6118 191.66C77.7857 189.272 77.3068 186.881 76.2191 184.709V184.709Z" fill="#F5F8FA"/>
<path opacity="0.03" d="M235.201 41.3482C232.722 40.7892 230.12 40.9236 227.723 41.7343C226.287 42.2474 224.749 42.4741 223.211 42.3997C221.673 42.3253 220.169 41.9513 218.799 41.3024C217.176 40.5475 215.395 40.1279 213.58 40.0727C211.764 40.0174 209.957 40.3279 208.285 40.9826C207.327 41.3934 206.276 41.5836 205.221 41.5372C200.965 41.3312 197.647 37.1925 197.208 31.9273C198.092 31.3968 198.856 30.712 199.457 29.9114C202.164 26.3149 206.165 24.1167 210.506 24.3267C214.846 24.5368 218.54 27.0581 220.822 30.8672C221.505 32.0181 222.498 32.9858 223.705 33.6759C224.913 34.366 226.293 34.755 227.712 34.8048L227.823 34.8102C231.189 34.9649 233.981 37.6151 235.201 41.3482Z" fill="black"/>
<path opacity="0.03" d="M62.3191 200.496C59.8404 199.937 57.2378 200.071 54.8416 200.882C53.4049 201.395 51.8672 201.622 50.3291 201.547C48.7911 201.473 47.2875 201.099 45.9167 200.45C44.2942 199.695 42.5134 199.275 40.6979 199.22C38.8824 199.165 37.0755 199.475 35.4027 200.13C34.4449 200.541 33.3938 200.731 32.3392 200.685C28.0829 200.479 24.7656 196.34 24.3264 191.075C25.2105 190.544 25.9742 189.859 26.5748 189.059C29.2819 185.462 33.2834 183.264 37.624 183.474C41.9645 183.684 45.6581 186.205 47.9405 190.015C48.6228 191.165 49.6161 192.133 50.8236 192.823C52.0312 193.513 53.4116 193.902 54.8303 193.952L54.9412 193.958C58.3068 194.112 61.0995 196.763 62.3191 200.496Z" fill="black"/>
</g>
<defs>
<clipPath id="clip0">
<rect width="417.063" height="250.064" fill="white" transform="matrix(0.998831 0.0483367 -0.0566642 0.998393 14.42 0.178253)"/>
</clipPath>
</defs>
</svg>
